<?xml version="1.0" standalone="no"?>
<!DOCTYPE svg PUBLIC "-//W3C//DTD SVG 20010904//EN"
 "http://www.w3.org/TR/2001/REC-SVG-20010904/DTD/svg10.dtd">
<svg version="1.0" xmlns="http://www.w3.org/2000/svg"
 width="2100.000000pt" height="1500.000000pt" viewBox="0 0 2100.000000 1500.000000"
 preserveAspectRatio="xMidYMid meet">

<g transform="translate(0.000000,1500.000000) scale(0.100000,-0.100000)"
fill="#000000" stroke="none">
<path d="M10190 14209 c-63 -5 -182 -13 -265 -18 -289 -20 -697 -91 -1055
-183 -63 -17 -133 -34 -155 -39 -60 -14 -246 -79 -277 -97 -34 -20 -34 -23 -5
-49 42 -38 501 -368 1052 -758 116 -82 278 -196 360 -255 83 -59 195 -138 250
-176 55 -39 123 -86 150 -105 1782 -1254 3366 -2345 3386 -2334 3 2 0 44 -7
92 -13 95 -53 366 -58 398 -2 11 -18 110 -36 220 -43 272 -262 1593 -305 1840
-19 110 -41 241 -50 290 -8 50 -22 126 -30 170 -8 44 -31 170 -51 280 -19 110
-41 211 -47 224 -15 29 -109 66 -342 136 -49 15 -101 31 -115 35 -14 5 -59 18
-100 30 -41 12 -96 28 -121 36 -165 50 -589 151 -724 173 -39 6 -81 13 -96 16
-72 14 -390 46 -541 55 -95 6 -243 15 -328 20 -175 11 -322 11 -490 -1z"/>
<path d="M7800 13630 c-14 -4 -38 -15 -55 -24 -16 -9 -34 -16 -38 -16 -14 0
-258 -124 -400 -203 -947 -530 -1735 -1248 -2306 -2101 -219 -327 -491 -815
-491 -881 0 -29 60 -21 755 104 61 11 126 22 145 26 54 10 186 34 275 50 44 8
91 17 105 20 14 3 52 10 85 15 33 6 80 15 105 20 43 9 183 35 430 80 196 36
482 90 555 105 39 8 97 19 130 25 33 5 71 12 85 15 65 12 312 60 470 90 96 18
202 38 235 44 33 6 71 13 85 16 14 3 50 10 80 16 30 5 87 16 125 24 57 12 253
49 365 70 68 13 362 70 490 95 80 16 287 56 460 90 173 33 344 67 380 75 36 8
88 19 115 23 44 8 586 118 625 127 14 3 141 32 188 42 12 3 25 9 27 13 3 5
-45 46 -107 92 -98 73 -201 147 -583 418 -91 65 -664 461 -860 595 -71 49
-164 112 -205 140 -677 463 -1200 806 -1229 804 -9 0 -27 -4 -41 -9z"/>
<path d="M13573 13455 c-3 -9 -3 -30 0 -48 3 -18 15 -84 26 -147 11 -63 38
-221 60 -350 83 -478 238 -1383 256 -1500 17 -100 73 -433 110 -645 14 -82 57
-334 95 -560 38 -225 85 -504 105 -620 20 -115 58 -343 86 -505 27 -162 59
-345 69 -407 11 -62 31 -176 45 -255 131 -771 214 -1218 225 -1218 24 0 836
1120 1425 1965 411 590 595 870 595 906 0 94 -372 807 -615 1179 -196 302
-412 564 -730 889 -480 490 -936 861 -1426 1158 -122 74 -301 173 -313 173 -4
0 -9 -7 -13 -15z"/>
<path d="M7485 10469 c-159 -28 -341 -59 -402 -69 -62 -11 -164 -29 -225 -39
-62 -11 -153 -27 -203 -36 -49 -9 -103 -18 -120 -21 -16 -3 -66 -12 -110 -20
-44 -8 -116 -21 -160 -29 -44 -8 -145 -25 -225 -40 -80 -14 -181 -32 -225 -40
-101 -17 -468 -83 -730 -130 -327 -59 -636 -113 -705 -125 -36 -6 -75 -13 -87
-16 -15 -3 -27 -19 -41 -57 -44 -116 -169 -557 -247 -864 -116 -463 -160 -877
-160 -1498 0 -390 10 -541 56 -860 80 -550 245 -1232 302 -1243 36 -7 418 498
872 1153 76 110 153 220 170 245 17 25 112 162 211 305 100 143 295 424 434
625 1426 2053 1889 2730 1913 2793 8 22 22 24 -318 -34z"/>
<path d="M16785 9493 c-27 -38 -106 -149 -175 -248 -69 -99 -148 -211 -175
-250 -91 -130 -559 -803 -720 -1037 -88 -127 -198 -287 -245 -355 -107 -155
-274 -397 -364 -528 -110 -160 -1159 -1699 -1394 -2045 -382 -563 -464 -688
-461 -697 5 -13 215 23 924 158 106 21 227 43 285 54 19 3 91 17 160 30 415
80 571 110 700 135 80 16 219 43 310 60 289 55 903 178 970 194 36 8 71 23 78
33 80 106 258 648 366 1113 57 248 74 350 101 630 32 338 33 1282 1 1582 -3
24 -10 88 -16 143 -13 118 -73 410 -135 655 -69 277 -125 440 -149 440 -7 0
-34 -30 -61 -67z"/>
<path d="M8913 8770 c-341 -36 -650 -175 -884 -397 -444 -423 -514 -1037 -176
-1543 69 -103 241 -272 356 -348 345 -230 793 -313 1201 -223 322 72 607 255
849 546 l59 71 -77 116 c-42 64 -93 144 -114 178 l-38 61 -57 -80 c-217 -303
-438 -470 -712 -536 -101 -25 -327 -31 -435 -12 -239 42 -432 143 -593 312
-96 99 -161 207 -204 335 -31 91 -32 102 -32 250 0 148 1 159 32 250 81 242
251 430 497 550 297 145 684 147 965 5 258 -131 436 -334 770 -880 67 -110
164 -263 215 -340 321 -483 641 -734 1055 -826 409 -90 852 -9 1192 217 535
356 726 1001 455 1539 -65 130 -134 224 -246 335 -339 338 -833 487 -1333 404
-244 -41 -453 -133 -653 -289 -84 -66 -290 -274 -306 -309 -8 -17 5 -43 76
-151 48 -71 96 -147 107 -167 12 -21 25 -38 28 -38 4 0 41 45 83 99 106 139
187 222 286 297 198 148 397 214 652 214 306 0 573 -112 777 -325 96 -99 161
-207 204 -335 31 -91 32 -102 32 -250 0 -148 -1 -159 -32 -250 -101 -303 -359
-534 -697 -626 -91 -25 -116 -28 -280 -28 -209 -1 -297 16 -441 83 -119 56
-186 103 -293 206 -164 158 -257 285 -506 690 -81 132 -184 294 -229 360 -338
500 -678 747 -1131 820 -115 19 -317 26 -422 15z"/>
<path d="M6312 7608 c-107 -145 -261 -373 -777 -1148 -309 -465 -689 -1031
-844 -1257 -154 -227 -281 -417 -281 -422 0 -16 109 -243 193 -404 388 -744
1199 -1708 1842 -2193 139 -105 381 -269 620 -419 193 -122 467 -275 493 -275
6 0 12 8 12 18 -1 40 -90 538 -209 1162 -49 256 -62 326 -96 500 -20 102 -53
277 -75 390 -70 364 -129 669 -251 1290 -28 140 -66 336 -85 435 -58 296 -262
1311 -319 1590 -99 480 -113 550 -139 664 -14 62 -26 115 -26 117 0 17 -26 -5
-58 -48z"/>
<path d="M7447 4668 c-2 -7 -2 -29 0 -48 19 -143 113 -710 189 -1135 14 -77
45 -255 70 -395 25 -140 49 -277 54 -305 5 -27 16 -90 25 -140 9 -49 36 -198
60 -330 24 -132 49 -267 55 -300 69 -376 127 -660 139 -684 43 -79 230 -164
551 -251 579 -157 1013 -237 1455 -269 423 -31 511 -34 665 -23 85 7 200 14
255 17 134 8 428 42 515 60 14 3 66 12 115 20 50 8 101 17 115 20 14 3 59 12
100 20 109 21 245 51 320 70 36 9 83 21 105 26 190 46 375 116 375 142 0 6
-64 57 -142 112 -132 92 -845 587 -1018 705 -41 28 -145 100 -231 159 -85 59
-231 159 -325 223 -93 64 -225 154 -294 201 -69 47 -174 120 -235 161 -60 41
-180 122 -265 181 -85 58 -218 149 -295 201 -77 52 -210 143 -295 201 -628
428 -847 576 -1460 988 -316 212 -580 385 -587 385 -6 0 -13 -6 -16 -12z"/>
<path d="M16369 4516 c-2 -2 -22 -6 -44 -10 -45 -6 -66 -10 -400 -72 -132 -25
-274 -52 -315 -59 -41 -8 -88 -17 -105 -20 -102 -19 -512 -98 -570 -110 -38
-8 -200 -39 -360 -70 -159 -31 -312 -60 -340 -65 -27 -6 -59 -12 -70 -14 -11
-2 -128 -25 -260 -51 -132 -25 -285 -55 -340 -65 -55 -11 -120 -24 -145 -29
-25 -6 -119 -24 -210 -42 -91 -17 -172 -33 -180 -34 -11 -3 -514 -103 -745
-149 -11 -3 -92 -18 -180 -35 -88 -18 -178 -36 -200 -41 -22 -5 -110 -23 -195
-40 -318 -62 -688 -136 -925 -186 -11 -2 -42 -8 -70 -14 -27 -5 -106 -21 -175
-36 -69 -14 -145 -30 -170 -35 -61 -13 -80 -19 -80 -28 0 -20 646 -477 2328
-1648 117 -81 275 -192 352 -245 77 -54 145 -98 151 -98 20 0 468 222 622 309
1041 580 1997 1536 2589 2586 91 162 106 191 118 232 11 34 11 45 0 58 -11 13
-70 21 -81 11z"/>
</g>
</svg>
