<?xml version="1.0" standalone="no"?>
<!DOCTYPE svg PUBLIC "-//W3C//DTD SVG 20010904//EN"
 "http://www.w3.org/TR/2001/REC-SVG-20010904/DTD/svg10.dtd">
<svg version="1.0" xmlns="http://www.w3.org/2000/svg"
 width="1890.000000pt" height="1417.000000pt" viewBox="0 0 1890.000000 1417.000000"
 preserveAspectRatio="xMidYMid meet">

<g transform="translate(0.000000,1417.000000) scale(0.100000,-0.100000)"
fill="#000000" stroke="none">
<path d="M0 7085 l0 -7085 9450 0 9450 0 0 7085 0 7085 -9450 0 -9450 0 0
-7085z m10112 4895 c316 -21 551 -55 793 -116 326 -82 723 -203 749 -229 19
-20 64 -263 241 -1320 146 -873 201 -1229 196 -1268 -1 -4 -11 -2 -23 4 -98
52 -1388 939 -2625 1805 -889 623 -1203 849 -1203 865 0 26 220 96 481 154
267 60 436 85 734 108 99 8 518 6 657 -3z m-2139 -486 c333 -208 1745 -1175
1987 -1360 78 -59 86 -70 58 -77 -797 -176 -4605 -892 -4638 -872 -46 29 318
641 563 948 331 413 704 753 1157 1052 217 143 412 252 660 367 61 29 83 23
213 -58z m4227 -121 c599 -338 1292 -975 1655 -1519 153 -231 454 -792 471
-879 5 -26 -8 -50 -83 -165 -122 -184 -362 -529 -699 -1000 -486 -680 -701
-967 -714 -954 -15 15 -113 573 -464 2634 -113 663 -235 1371 -270 1575 -36
203 -62 373 -59 378 8 13 42 -1 163 -70z m-4390 -2096 c0 -24 -390 -590 -1587
-2305 -711 -1019 -888 -1263 -1017 -1407 -39 -45 -46 -48 -60 -35 -62 62 -213
772 -246 1160 -13 159 -13 625 0 795 23 285 48 448 106 680 66 264 173 633
192 662 4 7 200 46 457 92 1507 268 2084 369 2128 370 16 1 27 -4 27 -12z
m6669 -726 c55 -129 159 -565 188 -792 14 -111 17 -222 18 -639 0 -645 -12
-772 -111 -1165 -57 -222 -174 -580 -217 -660 l-32 -60 -70 -17 c-219 -54
-2452 -475 -2462 -464 -17 17 2627 3846 2656 3846 5 0 18 -22 30 -49z m-5267
-561 c175 -36 311 -107 441 -229 137 -130 220 -250 425 -618 181 -325 236
-407 352 -524 80 -82 108 -103 180 -137 182 -87 381 -83 570 9 119 59 230 170
288 289 55 111 72 183 72 300 0 184 -63 334 -194 466 -141 140 -301 201 -503
191 -228 -13 -406 -128 -566 -367 l-55 -82 -38 69 c-21 37 -55 96 -75 129
l-37 62 62 78 c210 266 484 398 791 381 406 -23 731 -280 852 -674 25 -80 27
-102 27 -253 0 -151 -2 -172 -27 -253 -102 -330 -347 -567 -674 -649 -123 -32
-332 -31 -448 1 -314 85 -509 281 -785 786 -231 424 -334 564 -488 669 -136
93 -323 128 -492 92 -240 -50 -444 -248 -505 -491 -19 -76 -19 -234 0 -310 46
-183 182 -353 345 -434 112 -55 207 -74 330 -68 251 14 391 114 618 443 7 11
15 14 17 9 3 -6 36 -65 74 -130 l69 -119 -31 -45 c-50 -69 -183 -206 -250
-257 -79 -60 -200 -118 -302 -145 -117 -32 -326 -32 -448 -1 -272 68 -493 248
-613 497 -72 149 -88 223 -88 410 0 145 3 168 27 248 52 168 135 306 254 417
147 139 306 216 523 253 69 12 209 5 302 -13z m-2403 -1042 c179 -834 831
-4171 831 -4254 0 -34 -58 -8 -285 129 -220 131 -505 323 -625 420 -400 323
-841 829 -1153 1322 -73 117 -277 503 -277 525 0 4 91 139 201 301 111 162
389 573 617 914 570 851 618 919 633 893 4 -8 30 -120 58 -250z m1218 -2231
c948 -635 3059 -2071 3261 -2219 28 -21 52 -45 52 -54 0 -66 -771 -231 -1235
-265 -283 -20 -687 -2 -1002 46 -351 52 -858 180 -1017 255 -112 53 -116 61
-170 336 -94 487 -307 1686 -361 2027 -23 149 -24 187 -4 187 4 0 219 -141
476 -313z m6143 158 c0 -31 -38 -107 -127 -258 -379 -640 -924 -1217 -1543
-1632 -201 -135 -339 -213 -588 -336 l-203 -99 -587 407 c-1062 736 -1493
1040 -1499 1060 -2 6 28 18 69 27 168 38 2189 438 3008 596 1302 250 1350 258
1413 259 55 1 57 0 57 -24z"/>
</g>
</svg>
